<svg width="25" height="25" viewBox="0 0 25 25" fill="none" xmlns="http://www.w3.org/2000/svg">
<path d="M3.875 0.5C2.01104 0.5 0.5 2.01104 0.5 3.875V21.125C0.5 22.989 2.01104 24.5 3.875 24.5H21.125C22.989 24.5 24.5 22.989 24.5 21.125V3.875C24.5 2.01104 22.989 0.5 21.125 0.5H3.875Z" fill="white" stroke="black"/>
<path fill-rule="evenodd" clip-rule="evenodd" d="M22.6412 23.5682C22.201 23.8419 21.6815 24 21.125 24H3.875C3.57855 24 3.29258 23.9551 3.0235 23.8718C2.8285 23.2685 2.72498 22.6373 2.72498 21.9875C2.72498 17.7004 7.23011 14.225 12.7875 14.225C18.3448 14.225 22.85 17.7004 22.85 21.9875C22.85 22.5291 22.7781 23.0578 22.6412 23.5682Z" fill="#FFA800"/>
<circle cx="12.7875" cy="7.61248" r="4.8875" fill="#FFA800"/>
</svg>
