<svg width="50" height="50" viewBox="0 0 17 17" fill="none" xmlns="http://www.w3.org/2000/svg">
<circle cx="8.5" cy="8.5" r="8" stroke="white"/>
<line x1="4.25" y1="4" x2="4.25" y2="13" stroke="white" stroke-width="0.5"/>
<line x1="13" y1="13.25" x2="4" y2="13.25" stroke="white" stroke-width="0.5"/>
<path d="M7 8L7.09285 7.76788L6.87927 7.68245L6.77639 7.8882L7 8ZM9.5 9L9.40715 9.23212L9.62073 9.31755L9.72361 9.1118L9.5 9ZM12 4L9.59097 5.59057L12.173 6.88157L12 4ZM5.22361 12.1118L7.22361 8.1118L6.77639 7.8882L4.77639 11.8882L5.22361 12.1118ZM6.90715 8.23212L9.40715 9.23212L9.59285 8.76788L7.09285 7.76788L6.90715 8.23212ZM9.72361 9.1118L11.2174 6.12426L10.7702 5.90066L9.27639 8.8882L9.72361 9.1118Z" fill="white"/>
</svg>
